<?xml version="1.0"?>
<svg width="640" height="480" xmlns="http://www.w3.org/2000/svg" xmlns:svg="http://www.w3.org/2000/svg" xmlns:xlink="http://www.w3.org/1999/xlink">
 <!-- Created with SVG-edit - https://github.com/SVG-Edit/svgedit-->
 <defs>
  <symbol height="5" id="svg_1" viewBox="0 0 18 5" width="18" xmlns="http://www.w3.org/2000/svg">
   <path d="m16.7201,1.9l-5.14,0l0,-0.64c0,-0.7 -0.5688,-1.26 -1.2799,-1.26l-2.58011,0c-0.71106,0 -1.27991,0.56 -1.27991,1.26l0,0.64l-5.16027,0c-0.71106,0 -1.27991,0.56 -1.27991,1.26c0,0.70001 0.56885,1.26001 1.27991,1.26001l15.44019,0c0.7111,0 1.2799,-0.56 1.2799,-1.26001c0,-0.7 -0.5688,-1.26 -1.2799,-1.26z" fill="white"/>
  </symbol>
  <symbol height="14" id="svg_4" viewBox="0 0 16 14" width="16" xmlns="http://www.w3.org/2000/svg">
   <path d="m1.45787,12.86c0.06095,0.66 0.60948,1.14 1.27991,1.14l10.52372,0c0.6704,0 1.2189,-0.5 1.2799,-1.14l1.1783,-12.16005l-15.44016,0l1.17833,12.16005z" fill="white"/>
  </symbol>
 </defs>
 <g class="layer">
  <title>Layer 1</title>
  <use id="svg_2" transform="matrix(25.8718 0 0 16.0498 -376.649 -83.973)" x="17.753055" xlink:href="#svg_1" y="7.797418"/>
  <g id="svg_3"/>
  <use id="svg_5" transform="matrix(25.435 0 0 23.6296 -358.694 -234.428)" x="18.782036" xlink:href="#svg_4" y="15.668964"/>
  <g id="svg_6"/>
  <g id="svg_8"/>
  <g id="svg_10"/>
 </g>
</svg>